<svg id="Layer_1" data-name="Layer 1" xmlns="http://www.w3.org/2000/svg" xmlns:xlink="http://www.w3.org/1999/xlink" viewBox="0 0 100 100"><defs><style>.cls-1{fill:url(#linear-gradient);}.cls-2{fill:url(#linear-gradient-2);}.cls-3{fill:url(#linear-gradient-3);}.cls-4{fill:url(#linear-gradient-4);}.cls-5{fill:url(#linear-gradient-5);}.cls-6{fill:url(#linear-gradient-6);}.cls-7{fill:url(#linear-gradient-7);}.cls-8{fill:url(#linear-gradient-8);}</style><linearGradient id="linear-gradient" x1="31.84" y1="37.16" x2="70.42" y2="37.16" gradientUnits="userSpaceOnUse"><stop offset="0" stop-color="#fff"/><stop offset="0.09" stop-color="#cecece"/><stop offset="0.25" stop-color="#848484"/><stop offset="0.32" stop-color="#666"/><stop offset="0.36" stop-color="#707070"/><stop offset="0.43" stop-color="#8a8a8a"/><stop offset="0.52" stop-color="#b5b5b5"/><stop offset="0.62" stop-color="#f0f0f0"/><stop offset="0.65" stop-color="#fff"/><stop offset="1" stop-color="#fff"/></linearGradient><linearGradient id="linear-gradient-2" x1="22.2" y1="63.54" x2="43.7" y2="63.54" xlink:href="#linear-gradient"/><linearGradient id="linear-gradient-3" x1="13.23" y1="48.33" x2="86.77" y2="48.33" xlink:href="#linear-gradient"/><linearGradient id="linear-gradient-4" x1="49.02" y1="66.46" x2="72.69" y2="66.46" xlink:href="#linear-gradient"/><linearGradient id="linear-gradient-5" x1="21" y1="53.3" x2="76.56" y2="53.3" xlink:href="#linear-gradient"/><linearGradient id="linear-gradient-6" x1="0.5" y1="50" x2="99.5" y2="50" xlink:href="#linear-gradient"/><linearGradient id="linear-gradient-7" x1="4.14" y1="50" x2="95.86" y2="50" xlink:href="#linear-gradient"/><linearGradient id="linear-gradient-8" x1="0.5" y1="50" x2="99.5" y2="50" gradientUnits="userSpaceOnUse"><stop offset="0" stop-color="#fff"/><stop offset="0.09" stop-color="#cecece"/><stop offset="0.25" stop-color="#848484"/><stop offset="0.32" stop-color="#666"/><stop offset="0.36" stop-color="#707070"/><stop offset="0.43" stop-color="#8a8a8a"/><stop offset="0.52" stop-color="#b5b5b5"/><stop offset="0.62" stop-color="#f0f0f0"/><stop offset="0.65" stop-color="#fff"/><stop offset="0.69" stop-color="#f7f7f7"/><stop offset="0.76" stop-color="#e3e3e3"/><stop offset="0.84" stop-color="#c1c1c1"/><stop offset="0.93" stop-color="#929292"/><stop offset="1" stop-color="#666"/></linearGradient></defs><path class="cls-1" d="M61.09,35a6.52,6.52,0,0,0-4.45-6.07,22,22,0,0,0-6-1.09c-2.26-.13-3.52,1.43-4.05,3.46-1,3.79-1.86,7.62-2.78,11.43-.13.51-.28,1-.48,1.74L35.1,41.71c.57-2.6,1.14-5.05,1.64-7.51a16.37,16.37,0,0,0,.34-3c0-2.24-.78-3.32-2.93-3.9-.57-.15-1.66-.41-2.31-.62a8.62,8.62,0,0,1,.43-1.48.74.74,0,0,1,.25,0c9.11.12,18.24,0,27.32.63,4.61.29,8.67,2.51,10,7.53,2,7.17-1.49,13.29-8.46,15.58-2.41.79-5.68-1-8.37-1.09C59.13,45.44,61.58,41,61.09,35Z"/><path class="cls-2" d="M32.4,53.44c.06-.3.2-.88.28-1.16,0-.06,4.57,1.61,6.49,2.39,1.21.49,1.57,1,1.24,2.39-.77,3.1-1.39,6.24-2,9.38-.84,4.59.17,5.9,4.79,6.47l.42.08a7,7,0,0,1,0,1.38c-.06.46-.64.36-1,.36-6.65.09-13.29.06-19.94.06a.49.49,0,0,1-.37-.18h0a.71.71,0,0,1-.06-.68c.21-.48-.22-.79,1.46-1.1,3.38-.75,5-3,5.7-6.18C30.44,61.9,31.29,58.3,32.4,53.44Z"/><path class="cls-3" d="M13.23,47c6.93-3.38,14-4.9,21.53-3.1,8.73,2.07,16.15,4.56,24.91,6.45,3.34.71,5.16,1.13,11.58.47a18.29,18.29,0,0,0,8.42-3.26c2.29-1.68,4.47-3.51,7.1-5.56-9.2,11.75-21.4,15.48-35.2,10.47-5.18-1.89-10.29-4-15.58-5.54A38.41,38.41,0,0,0,14.32,47a6.55,6.55,0,0,1-.77.15C13.5,47.17,13.44,47.11,13.23,47Z"/><path class="cls-4" d="M72,74.69l-1.81,0c-3.59.1-7.18.08-10.77,0A1.91,1.91,0,0,1,58,74.08c-2.77-5.06-6.26-10.88-9-16,3.1.43,7,1.11,10.07,1.43.48.06,1,.76,1.32,1.28,1.4,2.33,2.69,4.74,4.11,7.07,1.63,2.7,2.92,5.06,8.17,5.15C72.58,73.26,72.17,74.43,72,74.69Z"/><path class="cls-5" d="M76.47,53c-3.11,3.32-7.13,4.39-11.31,5.08-7.38,1.22-14.42-.27-21.33-2.73-5.13-1.82-10.2-3.81-15.37-5.47A52.8,52.8,0,0,0,21,48.6c5.27-.75,10.26-.94,15.21.93,4.6,1.73,9.24,3.39,14,4.77a38.3,38.3,0,0,0,25.22-1c.25-.1.49-.22.74-.31C76.17,52.92,76.79,52.69,76.47,53Z"/><path class="cls-6" d="M50,99.5A49.48,49.48,0,0,1,15,15,49.5,49.5,0,1,1,85,85,49.32,49.32,0,0,1,50,99.5ZM50,1.08A48.92,48.92,0,1,0,98.92,50,49,49,0,0,0,50,1.08Z"/><path class="cls-7" d="M50,95.86A45.86,45.86,0,0,1,32.15,7.75a45.87,45.87,0,0,1,35.7,84.5A45.59,45.59,0,0,1,50,95.86ZM50,4.73A45.27,45.27,0,1,0,95.27,50,45.32,45.32,0,0,0,50,4.73Z"/><path class="cls-8" d="M61.09,35a6.52,6.52,0,0,0-4.45-6.07,22,22,0,0,0-6-1.09c-2.26-.13-3.52,1.43-4.05,3.46-1,3.79-1.86,7.62-2.78,11.43-.13.51-.28,1-.48,1.74L35.1,41.71c.57-2.6,1.14-5.05,1.64-7.51a16.37,16.37,0,0,0,.34-3c0-2.24-.78-3.32-2.93-3.9-.57-.15-1.66-.41-2.31-.62a8.62,8.62,0,0,1,.43-1.48.74.74,0,0,1,.25,0c9.11.12,18.24,0,27.32.63,4.61.29,8.67,2.51,10,7.53,2,7.17-1.49,13.29-8.46,15.58-2.41.79-5.68-1-8.37-1.09C59.13,45.44,61.58,41,61.09,35Z"/><path class="cls-8" d="M32.4,53.44c.06-.3.2-.88.28-1.16,0-.06,4.57,1.61,6.49,2.39,1.21.49,1.57,1,1.24,2.39-.77,3.1-1.39,6.24-2,9.38-.84,4.59.17,5.9,4.79,6.47l.42.08a7,7,0,0,1,0,1.38c-.06.46-.64.36-1,.36-6.65.09-13.29.06-19.94.06a.49.49,0,0,1-.37-.18h0a.71.71,0,0,1-.06-.68c.21-.48-.22-.79,1.46-1.1,3.38-.75,5-3,5.7-6.18C30.44,61.9,31.29,58.3,32.4,53.44Z"/><path class="cls-8" d="M13.23,47c6.93-3.38,14-4.9,21.53-3.1,8.73,2.07,16.15,4.56,24.91,6.45,3.34.71,5.16,1.13,11.58.47a18.29,18.29,0,0,0,8.42-3.26c2.29-1.68,4.47-3.51,7.1-5.56-9.2,11.75-21.4,15.48-35.2,10.47-5.18-1.89-10.29-4-15.58-5.54A38.41,38.41,0,0,0,14.32,47a6.55,6.55,0,0,1-.77.15C13.5,47.17,13.44,47.11,13.23,47Z"/><path class="cls-8" d="M72,74.69l-1.81,0c-3.59.1-7.18.08-10.77,0A1.91,1.91,0,0,1,58,74.08c-2.77-5.06-6.26-10.88-9-16,3.1.43,7,1.11,10.07,1.43.48.06,1,.76,1.32,1.28,1.4,2.33,2.69,4.74,4.11,7.07,1.63,2.7,2.92,5.06,8.17,5.15C72.58,73.26,72.17,74.43,72,74.69Z"/><path class="cls-8" d="M76.47,53c-3.11,3.32-7.13,4.39-11.31,5.08-7.38,1.22-14.42-.27-21.33-2.73-5.13-1.82-10.2-3.81-15.37-5.47A52.8,52.8,0,0,0,21,48.6c5.27-.75,10.26-.94,15.21.93,4.6,1.73,9.24,3.39,14,4.77a38.3,38.3,0,0,0,25.22-1c.25-.1.49-.22.74-.31C76.17,52.92,76.79,52.69,76.47,53Z"/><path class="cls-8" d="M50,99.5A49.48,49.48,0,0,1,15,15,49.5,49.5,0,1,1,85,85,49.32,49.32,0,0,1,50,99.5ZM50,1.08A48.92,48.92,0,1,0,98.92,50,49,49,0,0,0,50,1.08Z"/><path class="cls-8" d="M50,95.86A45.86,45.86,0,0,1,32.15,7.75a45.87,45.87,0,0,1,35.7,84.5A45.59,45.59,0,0,1,50,95.86ZM50,4.73A45.27,45.27,0,1,0,95.27,50,45.32,45.32,0,0,0,50,4.73Z"/></svg>